<mxfile host="app.diagrams.net" modified="2023-08-19T07:23:34.688Z" agent="Mozilla/5.0 (Windows NT 10.0; Win64; x64) AppleWebKit/537.36 (KHTML, like Gecko) Chrome/115.0.0.0 Safari/537.36" version="21.6.8" etag="ROM5JX0dCBvq0spzU4sv" type="github">
  <diagram name="Page-1" id="xwscOKkrjNXPiAhVY0E5">
    <mxGraphModel>
      <root>
        <mxCell id="0" />
        <mxCell id="1" parent="0" />
      </root>
    </mxGraphModel>
  </diagram>
</mxfile>
